
<svg xmlns="http://www.w3.org/2000/svg" width="448" height="304" class="svgbob"><style>.svgbob line, .svgbob path, .svgbob circle, .svgbob rect, .svgbob polygon {
	stroke: black;
	stroke-width: 2;
	stroke-opacity: 1;
	fill-opacity: 1;
	stroke-linecap: round;
	stroke-linejoin: miter;
	}
	.svgbob text {
	white-space: pre;
	fill: black;
	font-family: Iosevka Fixed, monospace;
	font-size: 14px;
	}
	.svgbob rect.backdrop {
	stroke: none;
	fill: white;
	}
	.svgbob .broken {
	stroke-dasharray: 8;
	}
	.svgbob .filled {
	fill: black;
	}
	.svgbob .bg_filled {
	fill: white;
	stroke-width: 1;
	}
	.svgbob .nofill {
	fill: white;
	}
	.svgbob .end_marked_arrow {
	marker-end: url(#arrow);
	}
	.svgbob .start_marked_arrow {
	marker-start: url(#arrow);
	}
	.svgbob .end_marked_diamond {
	marker-end: url(#diamond);
	}
	.svgbob .start_marked_diamond {
	marker-start: url(#diamond);
	}
	.svgbob .end_marked_circle {
	marker-end: url(#circle);
	}
	.svgbob .start_marked_circle {
	marker-start: url(#circle);
	}
	.svgbob .end_marked_open_circle {
	marker-end: url(#open_circle);
	}
	.svgbob .start_marked_open_circle {
	marker-start: url(#open_circle);
	}
	.svgbob .end_marked_big_open_circle {
	marker-end: url(#big_open_circle);
	}
	.svgbob .start_marked_big_open_circle {
	marker-start: url(#big_open_circle);
	}<!--separator--></style><defs><marker id="arrow" viewBox="-2 -2 8 8" refX="4" refY="2" markerWidth="7" markerHeight="7" orient="auto-start-reverse"><polygon points="0,0 0,4 4,2 0,0"></polygon></marker><marker id="diamond" viewBox="-2 -2 8 8" refX="4" refY="2" markerWidth="7" markerHeight="7" orient="auto-start-reverse"><polygon points="0,2 2,0 4,2 2,4 0,2"></polygon></marker><marker id="circle" viewBox="0 0 8 8" refX="4" refY="4" markerWidth="7" markerHeight="7" orient="auto-start-reverse"><circle cx="4" cy="4" r="2" class="filled"></circle></marker><marker id="open_circle" viewBox="0 0 8 8" refX="4" refY="4" markerWidth="7" markerHeight="7" orient="auto-start-reverse"><circle cx="4" cy="4" r="2" class="bg_filled"></circle></marker><marker id="big_open_circle" viewBox="0 0 8 8" refX="4" refY="4" markerWidth="7" markerHeight="7" orient="auto-start-reverse"><circle cx="4" cy="4" r="3" class="bg_filled"></circle></marker></defs><rect class="backdrop" x="0" y="0" width="448" height="304"></rect><text x="194" y="28" >object</text><line x1="186" y1="60" x2="188" y2="56" class="solid end_marked_open_circle"></line><line x1="270" y1="60" x2="268" y2="56" class="solid end_marked_open_circle"></line><polygon points="137,116 130,124 130,113" class="filled"></polygon><polygon points="319,116 326,124 326,113" class="filled"></polygon><text x="90" y="156" >a:</text><text x="114" y="156" >object</text><text x="306" y="156" >b:</text><text x="330" y="156" >array</text><line x1="98" y1="188" x2="100" y2="184" class="solid end_marked_open_circle"></line><line x1="150" y1="188" x2="148" y2="184" class="solid end_marked_open_circle"></line><line x1="314" y1="188" x2="316" y2="184" class="solid end_marked_open_circle"></line><line x1="366" y1="188" x2="364" y2="184" class="solid end_marked_open_circle"></line><line x1="96" y1="192" x2="78" y2="228" class="solid"></line><line x1="152" y1="192" x2="170" y2="228" class="solid"></line><line x1="312" y1="192" x2="294" y2="228" class="solid"></line><line x1="368" y1="192" x2="386" y2="228" class="solid"></line><polygon points="81,228 74,236 74,225" class="filled"></polygon><polygon points="167,228 174,236 174,225" class="filled"></polygon><polygon points="297,228 290,236 290,225" class="filled"></polygon><polygon points="383,228 390,236 390,225" class="filled"></polygon><text x="26" y="268" >c:'foobar'</text><text x="146" y="268" >d:</text><text x="170" y="268" >3.1415</text><text x="258" y="268" >'asdfgh'</text><text x="362" y="268" >'asdfgh'</text><g><path d="M 192,8 A 8,8 0,0,0 186,12" class="nofill"></path><line x1="186" y1="12" x2="184" y2="16" class="solid"></line><line x1="192" y1="8" x2="264" y2="8" class="solid"></line><path d="M 264,8 A 8,8 0,0,1 270,12" class="nofill"></path><line x1="270" y1="12" x2="272" y2="16" class="solid"></line><path d="M 184,16 A 16,16 0,0,0 184,32" class="nofill"></path><path d="M 272,16 A 16,16 0,0,1 272,32" class="nofill"></path><line x1="184" y1="32" x2="186" y2="36" class="solid"></line><path d="M 186,36 A 8,8 0,0,0 192,40" class="nofill"></path><line x1="192" y1="40" x2="264" y2="40" class="solid"></line><line x1="272" y1="32" x2="270" y2="36" class="solid"></line><path d="M 270,36 A 8,8 0,0,1 264,40" class="nofill"></path></g><g><line x1="184" y1="64" x2="174" y2="84" class="solid"></line><path d="M 152,88 A 8,8 0,0,0 146,92" class="nofill"></path><line x1="146" y1="92" x2="134" y2="116" class="solid"></line><line x1="152" y1="88" x2="168" y2="88" class="solid"></line><path d="M 174,84 A 8,8 0,0,1 168,88" class="nofill"></path></g><g><line x1="272" y1="64" x2="282" y2="84" class="solid"></line><path d="M 282,84 A 8,8 0,0,0 288,88" class="nofill"></path><line x1="288" y1="88" x2="304" y2="88" class="solid"></line><path d="M 304,88 A 8,8 0,0,1 310,92" class="nofill"></path><line x1="310" y1="92" x2="322" y2="116" class="solid"></line></g><g><path d="M 88,136 A 8,8 0,0,0 82,140" class="nofill"></path><line x1="82" y1="140" x2="80" y2="144" class="solid"></line><line x1="88" y1="136" x2="160" y2="136" class="solid"></line><path d="M 160,136 A 8,8 0,0,1 166,140" class="nofill"></path><line x1="166" y1="140" x2="168" y2="144" class="solid"></line><path d="M 80,144 A 16,16 0,0,0 80,160" class="nofill"></path><path d="M 168,144 A 16,16 0,0,1 168,160" class="nofill"></path><line x1="80" y1="160" x2="82" y2="164" class="solid"></line><path d="M 82,164 A 8,8 0,0,0 88,168" class="nofill"></path><line x1="88" y1="168" x2="160" y2="168" class="solid"></line><line x1="168" y1="160" x2="166" y2="164" class="solid"></line><path d="M 166,164 A 8,8 0,0,1 160,168" class="nofill"></path></g><g><path d="M 304,136 A 8,8 0,0,0 298,140" class="nofill"></path><line x1="298" y1="140" x2="296" y2="144" class="solid"></line><line x1="304" y1="136" x2="376" y2="136" class="solid"></line><path d="M 376,136 A 8,8 0,0,1 382,140" class="nofill"></path><line x1="382" y1="140" x2="384" y2="144" class="solid"></line><path d="M 296,144 A 16,16 0,0,0 296,160" class="nofill"></path><path d="M 384,144 A 16,16 0,0,1 384,160" class="nofill"></path><line x1="296" y1="160" x2="298" y2="164" class="solid"></line><path d="M 298,164 A 8,8 0,0,0 304,168" class="nofill"></path><line x1="304" y1="168" x2="376" y2="168" class="solid"></line><line x1="384" y1="160" x2="382" y2="164" class="solid"></line><path d="M 382,164 A 8,8 0,0,1 376,168" class="nofill"></path></g><g><path d="M 24,248 A 8,8 0,0,0 18,252" class="nofill"></path><line x1="18" y1="252" x2="16" y2="256" class="solid"></line><line x1="24" y1="248" x2="104" y2="248" class="solid"></line><path d="M 104,248 A 8,8 0,0,1 110,252" class="nofill"></path><line x1="110" y1="252" x2="112" y2="256" class="solid"></line><path d="M 16,256 A 16,16 0,0,0 16,272" class="nofill"></path><path d="M 112,256 A 16,16 0,0,1 112,272" class="nofill"></path><line x1="16" y1="272" x2="18" y2="276" class="solid"></line><path d="M 18,276 A 8,8 0,0,0 24,280" class="nofill"></path><line x1="24" y1="280" x2="104" y2="280" class="solid"></line><line x1="112" y1="272" x2="110" y2="276" class="solid"></line><path d="M 110,276 A 8,8 0,0,1 104,280" class="nofill"></path></g><g><path d="M 144,248 A 8,8 0,0,0 138,252" class="nofill"></path><line x1="138" y1="252" x2="136" y2="256" class="solid"></line><line x1="144" y1="248" x2="216" y2="248" class="solid"></line><path d="M 216,248 A 8,8 0,0,1 222,252" class="nofill"></path><line x1="222" y1="252" x2="224" y2="256" class="solid"></line><path d="M 136,256 A 16,16 0,0,0 136,272" class="nofill"></path><path d="M 224,256 A 16,16 0,0,1 224,272" class="nofill"></path><line x1="136" y1="272" x2="138" y2="276" class="solid"></line><path d="M 138,276 A 8,8 0,0,0 144,280" class="nofill"></path><line x1="144" y1="280" x2="216" y2="280" class="solid"></line><line x1="224" y1="272" x2="222" y2="276" class="solid"></line><path d="M 222,276 A 8,8 0,0,1 216,280" class="nofill"></path></g><g><path d="M 256,248 A 8,8 0,0,0 250,252" class="nofill"></path><line x1="250" y1="252" x2="248" y2="256" class="solid"></line><line x1="256" y1="248" x2="320" y2="248" class="solid"></line><path d="M 320,248 A 8,8 0,0,1 326,252" class="nofill"></path><line x1="326" y1="252" x2="328" y2="256" class="solid"></line><path d="M 248,256 A 16,16 0,0,0 248,272" class="nofill"></path><path d="M 328,256 A 16,16 0,0,1 328,272" class="nofill"></path><line x1="248" y1="272" x2="250" y2="276" class="solid"></line><path d="M 250,276 A 8,8 0,0,0 256,280" class="nofill"></path><line x1="256" y1="280" x2="320" y2="280" class="solid"></line><line x1="328" y1="272" x2="326" y2="276" class="solid"></line><path d="M 326,276 A 8,8 0,0,1 320,280" class="nofill"></path></g><g><path d="M 360,248 A 8,8 0,0,0 354,252" class="nofill"></path><line x1="354" y1="252" x2="352" y2="256" class="solid"></line><line x1="360" y1="248" x2="424" y2="248" class="solid"></line><path d="M 424,248 A 8,8 0,0,1 430,252" class="nofill"></path><line x1="430" y1="252" x2="432" y2="256" class="solid"></line><path d="M 352,256 A 16,16 0,0,0 352,272" class="nofill"></path><path d="M 432,256 A 16,16 0,0,1 432,272" class="nofill"></path><line x1="352" y1="272" x2="354" y2="276" class="solid"></line><path d="M 354,276 A 8,8 0,0,0 360,280" class="nofill"></path><line x1="360" y1="280" x2="424" y2="280" class="solid"></line><line x1="432" y1="272" x2="430" y2="276" class="solid"></line><path d="M 430,276 A 8,8 0,0,1 424,280" class="nofill"></path></g></svg>
