<svg xmlns="http://www.w3.org/2000/svg" width="656" height="512" class="svgbob"><style>.svgbob line, .svgbob path, .svgbob circle, .svgbob rect, .svgbob polygon {
	stroke: black;
	stroke-width: 2;
	stroke-opacity: 1;
	fill-opacity: 1;
	stroke-linecap: round;
	stroke-linejoin: miter;
	}
	.svgbob text {
	white-space: pre;
	fill: black;
	font-family: Iosevka Fixed, monospace;
	font-size: 14px;
	}
	.svgbob rect.backdrop {
	stroke: none;
	fill: white;
	}
	.svgbob .broken {
	stroke-dasharray: 8;
	}
	.svgbob .filled {
	fill: black;
	}
	.svgbob .bg_filled {
	fill: white;
	stroke-width: 1;
	}
	.svgbob .nofill {
	fill: white;
	}
	.svgbob .end_marked_arrow {
	marker-end: url(#arrow);
	}
	.svgbob .start_marked_arrow {
	marker-start: url(#arrow);
	}
	.svgbob .end_marked_diamond {
	marker-end: url(#diamond);
	}
	.svgbob .start_marked_diamond {
	marker-start: url(#diamond);
	}
	.svgbob .end_marked_circle {
	marker-end: url(#circle);
	}
	.svgbob .start_marked_circle {
	marker-start: url(#circle);
	}
	.svgbob .end_marked_open_circle {
	marker-end: url(#open_circle);
	}
	.svgbob .start_marked_open_circle {
	marker-start: url(#open_circle);
	}
	.svgbob .end_marked_big_open_circle {
	marker-end: url(#big_open_circle);
	}
	.svgbob .start_marked_big_open_circle {
	marker-start: url(#big_open_circle);
	}<!--separator--></style><defs><marker id="arrow" viewBox="-2 -2 8 8" refX="4" refY="2" markerWidth="7" markerHeight="7" orient="auto-start-reverse"><polygon points="0,0 0,4 4,2 0,0"></polygon></marker><marker id="diamond" viewBox="-2 -2 8 8" refX="4" refY="2" markerWidth="7" markerHeight="7" orient="auto-start-reverse"><polygon points="0,2 2,0 4,2 2,4 0,2"></polygon></marker><marker id="circle" viewBox="0 0 8 8" refX="4" refY="4" markerWidth="7" markerHeight="7" orient="auto-start-reverse"><circle cx="4" cy="4" r="2" class="filled"></circle></marker><marker id="open_circle" viewBox="0 0 8 8" refX="4" refY="4" markerWidth="7" markerHeight="7" orient="auto-start-reverse"><circle cx="4" cy="4" r="2" class="bg_filled"></circle></marker><marker id="big_open_circle" viewBox="0 0 8 8" refX="4" refY="4" markerWidth="7" markerHeight="7" orient="auto-start-reverse"><circle cx="4" cy="4" r="3" class="bg_filled"></circle></marker></defs><rect class="backdrop" x="0" y="0" width="656" height="512"></rect><rect x="4" y="8" width="384" height="112" class="solid nofill" rx="4"></rect><text x="18" y="28">0x001</text><text x="18" y="44">type:</text><text x="66" y="44">object</text><text x="18" y="60">obj:</text><text x="58" y="60">[</text><text x="18" y="108">]</text><text x="50" y="76">{type: object, key: ”a”, val: 0x002},</text><text x="50" y="92">{type: array, key: ”b”, val: 0x003}</text><rect x="4" y="216" width="312" height="112" class="solid nofill" rx="4"></rect><text x="18" y="236">0x002</text><text x="18" y="252">type:</text><text x="66" y="252">object</text><text x="18" y="268">obj:</text><text x="58" y="268">[</text><text x="18" y="316">]</text><text x="50" y="284">{type: object, val: 0x004},</text><text x="50" y="300">{type: object, str: 0x005}</text><rect x="332" y="216" width="312" height="112" class="solid nofill" rx="4"></rect><text x="346" y="236">0x003</text><text x="346" y="252">type:</text><text x="394" y="252">array</text><text x="346" y="268">arr:</text><text x="386" y="268">[</text><text x="346" y="316">]</text><text x="378" y="284">{type: object, val: 0x006},</text><text x="378" y="300">{type: object, str: 0x007}</text><rect x="4" y="424" width="144" height="64" class="solid nofill" rx="4"></rect><text x="18" y="444">0x004</text><text x="18" y="460">type:</text><text x="66" y="460">string</text><text x="18" y="476">val:</text><rect x="164" y="424" width="144" height="64" class="solid nofill" rx="4"></rect><text x="178" y="444">0x005</text><text x="178" y="460">type:</text><text x="226" y="460">number</text><text x="178" y="476">val:</text><rect x="332" y="424" width="144" height="64" class="solid nofill" rx="4"></rect><text x="346" y="444">0x004</text><text x="346" y="460">type:</text><text x="394" y="460">string</text><text x="346" y="476">val:</text><rect x="492" y="424" width="144" height="64" class="solid nofill" rx="4"></rect><text x="506" y="444">0x005</text><text x="506" y="460">type:</text><text x="554" y="460">number</text><text x="506" y="476">val:</text><polygon points="8,196 16,196 12,208" class="filled"></polygon><polygon points="336,196 344,196 340,208" class="filled"></polygon><polygon points="8,404 16,404 12,416" class="filled"></polygon><polygon points="168,404 176,404 172,416" class="filled"></polygon><polygon points="336,404 344,404 340,416" class="filled"></polygon><polygon points="496,404 504,404 500,416" class="filled"></polygon><g><line x1="360" y1="72" x2="372" y2="72" class="solid"></line><line x1="372" y1="72" x2="372" y2="168" class="solid"></line><line x1="340" y1="168" x2="372" y2="168" class="solid"></line><line x1="340" y1="168" x2="340" y2="196" class="solid"></line></g><g><line x1="344" y1="88" x2="356" y2="88" class="solid"></line><line x1="356" y1="88" x2="356" y2="152" class="solid"></line><line x1="12" y1="152" x2="356" y2="152" class="solid"></line><line x1="12" y1="152" x2="12" y2="196" class="solid"></line></g><g><line x1="280" y1="280" x2="300" y2="280" class="solid"></line><line x1="300" y1="280" x2="300" y2="376" class="solid"></line><line x1="172" y1="376" x2="300" y2="376" class="solid"></line><line x1="172" y1="376" x2="172" y2="404" class="solid"></line></g><g><line x1="272" y1="296" x2="284" y2="296" class="solid"></line><line x1="284" y1="296" x2="284" y2="360" class="solid"></line><line x1="12" y1="360" x2="284" y2="360" class="solid"></line><line x1="12" y1="360" x2="12" y2="404" class="solid"></line></g><g><line x1="608" y1="280" x2="628" y2="280" class="solid"></line><line x1="628" y1="280" x2="628" y2="376" class="solid"></line><line x1="500" y1="376" x2="628" y2="376" class="solid"></line><line x1="500" y1="376" x2="500" y2="404" class="solid"></line></g><g><line x1="600" y1="296" x2="612" y2="296" class="solid"></line><line x1="612" y1="296" x2="612" y2="360" class="solid"></line><line x1="340" y1="360" x2="612" y2="360" class="solid"></line><line x1="340" y1="360" x2="340" y2="404" class="solid"></line></g><g><text x="58" y="476">”</text><text x="66" y="476">foobar”</text><text x="122" y="476">},</text></g><g><text x="218" y="476">”</text><text x="226" y="476">3.1415”</text><text x="282" y="476">},</text></g><g><text x="386" y="476">”</text><text x="394" y="476">foobar”</text><text x="450" y="476">},</text></g><g><text x="546" y="476">”</text><text x="554" y="476">3.1415”</text><text x="610" y="476">},</text></g></svg>
