<svg xmlns="http://www.w3.org/2000/svg" width="1024" height="864" class="svgbob"><style>.svgbob line, .svgbob path, .svgbob circle, .svgbob rect, .svgbob polygon {
	stroke: black;
	stroke-width: 2;
	stroke-opacity: 1;
	fill-opacity: 1;
	stroke-linecap: round;
	stroke-linejoin: miter;
	}
	.svgbob text {
	white-space: pre;
	fill: black;
	font-family: Iosevka Fixed, monospace;
	font-size: 14px;
	}
	.svgbob rect.backdrop {
	stroke: none;
	fill: white;
	}
	.svgbob .broken {
	stroke-dasharray: 8;
	}
	.svgbob .filled {
	fill: black;
	}
	.svgbob .bg_filled {
	fill: white;
	stroke-width: 1;
	}
	.svgbob .nofill {
	fill: white;
	}
	.svgbob .end_marked_arrow {
	marker-end: url(#arrow);
	}
	.svgbob .start_marked_arrow {
	marker-start: url(#arrow);
	}
	.svgbob .end_marked_diamond {
	marker-end: url(#diamond);
	}
	.svgbob .start_marked_diamond {
	marker-start: url(#diamond);
	}
	.svgbob .end_marked_circle {
	marker-end: url(#circle);
	}
	.svgbob .start_marked_circle {
	marker-start: url(#circle);
	}
	.svgbob .end_marked_open_circle {
	marker-end: url(#open_circle);
	}
	.svgbob .start_marked_open_circle {
	marker-start: url(#open_circle);
	}
	.svgbob .end_marked_big_open_circle {
	marker-end: url(#big_open_circle);
	}
	.svgbob .start_marked_big_open_circle {
	marker-start: url(#big_open_circle);
	}<!--separator--></style><defs><marker id="arrow" viewBox="-2 -2 8 8" refX="4" refY="2" markerWidth="7" markerHeight="7" orient="auto-start-reverse"><polygon points="0,0 0,4 4,2 0,0"></polygon></marker><marker id="diamond" viewBox="-2 -2 8 8" refX="4" refY="2" markerWidth="7" markerHeight="7" orient="auto-start-reverse"><polygon points="0,2 2,0 4,2 2,4 0,2"></polygon></marker><marker id="circle" viewBox="0 0 8 8" refX="4" refY="4" markerWidth="7" markerHeight="7" orient="auto-start-reverse"><circle cx="4" cy="4" r="2" class="filled"></circle></marker><marker id="open_circle" viewBox="0 0 8 8" refX="4" refY="4" markerWidth="7" markerHeight="7" orient="auto-start-reverse"><circle cx="4" cy="4" r="2" class="bg_filled"></circle></marker><marker id="big_open_circle" viewBox="0 0 8 8" refX="4" refY="4" markerWidth="7" markerHeight="7" orient="auto-start-reverse"><circle cx="4" cy="4" r="3" class="bg_filled"></circle></marker></defs><rect class="backdrop" x="0" y="0" width="1024" height="864"></rect><text x="2" y="12">source:</text><text x="10" y="44">0</text><text x="26" y="44">1</text><text x="42" y="44">2</text><text x="58" y="44">3</text><text x="74" y="44">4</text><text x="90" y="44">5</text><text x="106" y="44">6</text><text x="122" y="44">7</text><text x="138" y="44">8</text><text x="154" y="44">9</text><text x="170" y="44">.</text><text x="186" y="44">.</text><text x="202" y="44">.</text><text x="218" y="44">.</text><text x="234" y="44">.</text><text x="250" y="44">.</text><text x="266" y="44">.</text><text x="282" y="44">.</text><text x="298" y="44">.</text><text x="314" y="44">.</text><text x="330" y="44">.</text><text x="346" y="44">.</text><text x="362" y="44">.</text><text x="378" y="44">.</text><text x="394" y="44">.</text><text x="410" y="44">.</text><text x="426" y="44">.</text><text x="442" y="44">.</text><text x="458" y="44">.</text><text x="474" y="44">.</text><text x="490" y="44">.</text><text x="506" y="44">.</text><text x="522" y="44">.</text><text x="538" y="44">.</text><text x="554" y="44">.</text><text x="570" y="44">.</text><text x="586" y="44">.</text><text x="602" y="44">.</text><text x="618" y="44">.</text><text x="634" y="44">.</text><text x="650" y="44">.</text><text x="666" y="44">.</text><text x="682" y="44">.</text><text x="698" y="44">.</text><text x="714" y="44">.</text><text x="730" y="44">.</text><text x="746" y="44">.</text><text x="762" y="44">.</text><text x="778" y="44">.</text><text x="794" y="44">.</text><text x="810" y="44">.</text><text x="826" y="44">.</text><text x="842" y="44">.</text><text x="858" y="44">.</text><text x="10" y="76">{</text><text x="90" y="76">{</text><text x="202" y="76">o</text><text x="218" y="76">o</text><text x="234" y="76">b</text><text x="250" y="76">a</text><text x="266" y="76">r</text><text x="378" y="76">3</text><text x="394" y="76">.</text><text x="410" y="76">1</text><text x="426" y="76">4</text><text x="442" y="76">1</text><text x="458" y="76">5</text><text x="474" y="76">}</text><text x="490" y="76">,</text><text x="570" y="76">[</text><text x="618" y="76">s</text><text x="634" y="76">d</text><text x="650" y="76">f</text><text x="666" y="76">g</text><text x="682" y="76">h</text><text x="762" y="76">x</text><text x="778" y="76">c</text><text x="794" y="76">v</text><text x="810" y="76">b</text><text x="858" y="76">}</text><polygon points="32,108 36,96 40,108" class="filled"></polygon><polygon points="48,108 52,96 56,108" class="filled"></polygon><polygon points="112,108 116,96 120,108" class="filled"></polygon><polygon points="128,108 132,96 136,108" class="filled"></polygon><polygon points="176,108 180,96 184,108" class="filled"></polygon><polygon points="272,108 276,96 280,108" class="filled"></polygon><polygon points="320,108 324,96 328,108" class="filled"></polygon><polygon points="336,108 340,96 344,108" class="filled"></polygon><polygon points="368,108 372,96 376,108" class="filled"></polygon><polygon points="464,108 468,96 472,108" class="filled"></polygon><polygon points="592,108 596,96 600,108" class="filled"></polygon><polygon points="688,108 692,96 696,108" class="filled"></polygon><polygon points="736,108 740,96 744,108" class="filled"></polygon><polygon points="816,108 820,96 824,108" class="filled"></polygon><text x="514" y="140">hi</text><text x="514" y="156">lo</text><text x="354" y="204">hi</text><text x="354" y="220">lo</text><text x="250" y="236">hi</text><text x="250" y="252">lo</text><text x="146" y="268">hi</text><text x="778" y="268">hi</text><text x="146" y="284">lo</text><text x="778" y="284">lo</text><text x="2" y="300">vector:</text><text x="18" y="332">type:</text><text x="66" y="332">object</text><text x="162" y="332">type:</text><text x="210" y="332">object</text><text x="306" y="332">type:</text><text x="354" y="332">string</text><text x="450" y="332">type:</text><text x="498" y="332">number</text><text x="594" y="332">type:</text><text x="642" y="332">array</text><text x="738" y="332">type:</text><text x="786" y="332">string</text><text x="882" y="332">type:</text><text x="930" y="332">string</text><text x="18" y="348">key:</text><text x="58" y="348">{}</text><text x="162" y="348">key:</text><text x="202" y="348">{lo:</text><text x="242" y="348">2,</text><text x="306" y="348">key:</text><text x="346" y="348">{lo:</text><text x="386" y="348">7,</text><text x="450" y="348">key:</text><text x="490" y="348">{lo:</text><text x="530" y="348">20,</text><text x="594" y="348">key:</text><text x="634" y="348">{lo:</text><text x="674" y="348">32,</text><text x="738" y="348">key:</text><text x="778" y="348">{}</text><text x="882" y="348">key:</text><text x="922" y="348">{}</text><text x="194" y="364">hi:</text><text x="226" y="364">3}</text><text x="338" y="364">hi:</text><text x="370" y="364">8}</text><text x="482" y="364">hi:</text><text x="514" y="364">21}</text><text x="626" y="364">hi:</text><text x="658" y="364">33}</text><text x="162" y="380">value:</text><text x="218" y="380">{}</text><text x="306" y="380">value:</text><text x="362" y="380">{lo:</text><text x="402" y="380">11,</text><text x="450" y="380">value:</text><text x="506" y="380">{lo:</text><text x="546" y="380">23,</text><text x="594" y="380">value:</text><text x="650" y="380">{}</text><text x="738" y="380">value:</text><text x="794" y="380">{lo:</text><text x="834" y="380">37,</text><text x="882" y="380">value:</text><text x="938" y="380">{lo:</text><text x="978" y="380">46,</text><text x="338" y="396">hi:</text><text x="370" y="396">17}</text><text x="482" y="396">hi:</text><text x="514" y="396">29}</text><text x="770" y="396">hi:</text><text x="802" y="396">43}</text><text x="914" y="396">hi:</text><text x="946" y="396">51}</text><text x="18" y="412">idx:</text><text x="58" y="412">0</text><text x="162" y="412">idx:</text><text x="202" y="412">1</text><text x="306" y="412">idx:</text><text x="346" y="412">2</text><text x="450" y="412">idx:</text><text x="490" y="412">3</text><text x="594" y="412">idx:</text><text x="634" y="412">4</text><text x="738" y="412">idx:</text><text x="778" y="412">5</text><text x="882" y="412">idx:</text><text x="922" y="412">6</text><text x="18" y="428">depth:</text><text x="74" y="428">0</text><text x="162" y="428">depth:</text><text x="218" y="428">1</text><text x="306" y="428">depth:</text><text x="362" y="428">2</text><text x="450" y="428">depth:</text><text x="506" y="428">2</text><text x="594" y="428">depth:</text><text x="650" y="428">1</text><text x="738" y="428">depth:</text><text x="794" y="428">2</text><text x="882" y="428">depth:</text><text x="938" y="428">2</text><text x="18" y="444">offset:</text><text x="82" y="444">0</text><text x="162" y="444">offset:</text><text x="226" y="444">0</text><text x="306" y="444">offset:</text><text x="370" y="444">0</text><text x="450" y="444">offset:</text><text x="514" y="444">0</text><text x="594" y="444">offset:</text><text x="658" y="444">2</text><text x="738" y="444">offset:</text><text x="802" y="444">0</text><text x="882" y="444">offset:</text><text x="946" y="444">0</text><text x="18" y="460">limit:</text><text x="74" y="460">2</text><text x="162" y="460">limit:</text><text x="218" y="460">2</text><text x="306" y="460">limit:</text><text x="362" y="460">0</text><text x="450" y="460">limit:</text><text x="506" y="460">0</text><text x="594" y="460">limit:</text><text x="650" y="460">4</text><text x="738" y="460">limit:</text><text x="794" y="460">0</text><text x="882" y="460">limit:</text><text x="938" y="460">0</text><text x="122" y="572">+1</text><text x="202" y="572">index:</text><text x="218" y="604">0</text><polygon points="184,612 192,616 184,620" class="filled"></polygon><text x="386" y="636">+1</text><text x="698" y="636">+1</text><polygon points="216,676 224,676 220,688" class="filled"></polygon><polygon points="248,676 256,676 252,688" class="filled"></polygon><text x="218" y="700">1</text><text x="250" y="700">4</text><polygon points="352,708 344,712 352,716" class="filled"></polygon><polygon points="408,708 400,712 408,716" class="filled"></polygon><polygon points="216,804 224,804 220,816" class="filled"></polygon><polygon points="248,804 256,804 252,816" class="filled"></polygon><polygon points="280,804 288,804 284,816" class="filled"></polygon><polygon points="312,804 320,804 316,816" class="filled"></polygon><text x="218" y="828">2</text><text x="250" y="828">3</text><text x="282" y="828">5</text><text x="314" y="828">6</text><text x="914" y="236">hi</text><text x="914" y="252">lo</text><text x="18" y="380">value:</text><text x="74" y="380">{}</text><g><path d="M 8,24 A 4,4 0,0,0 4,28" class="nofill"></path><line x1="4" y1="28" x2="4" y2="84" class="solid"></line><line x1="8" y1="24" x2="864" y2="24" class="solid"></line><line x1="20" y1="24" x2="20" y2="88" class="solid"></line><line x1="36" y1="24" x2="36" y2="88" class="solid"></line><line x1="68" y1="24" x2="68" y2="88" class="solid"></line><line x1="84" y1="24" x2="84" y2="88" class="solid"></line><line x1="100" y1="24" x2="100" y2="88" class="solid"></line><line x1="116" y1="24" x2="116" y2="88" class="solid"></line><line x1="132" y1="24" x2="132" y2="88" class="solid"></line><line x1="148" y1="24" x2="148" y2="88" class="solid"></line><line x1="164" y1="24" x2="164" y2="88" class="solid"></line><line x1="180" y1="24" x2="180" y2="88" class="solid"></line><line x1="196" y1="24" x2="196" y2="88" class="solid"></line><line x1="212" y1="24" x2="212" y2="88" class="solid"></line><line x1="228" y1="24" x2="228" y2="88" class="solid"></line><line x1="244" y1="24" x2="244" y2="88" class="solid"></line><line x1="260" y1="24" x2="260" y2="88" class="solid"></line><line x1="276" y1="24" x2="276" y2="88" class="solid"></line><line x1="292" y1="24" x2="292" y2="88" class="solid"></line><line x1="308" y1="24" x2="308" y2="88" class="solid"></line><line x1="324" y1="24" x2="324" y2="88" class="solid"></line><line x1="340" y1="24" x2="340" y2="88" class="solid"></line><line x1="356" y1="24" x2="356" y2="88" class="solid"></line><line x1="372" y1="24" x2="372" y2="88" class="solid"></line><line x1="388" y1="24" x2="388" y2="88" class="solid"></line><line x1="404" y1="24" x2="404" y2="88" class="solid"></line><line x1="420" y1="24" x2="420" y2="88" class="solid"></line><line x1="436" y1="24" x2="436" y2="88" class="solid"></line><line x1="452" y1="24" x2="452" y2="88" class="solid"></line><line x1="468" y1="24" x2="468" y2="88" class="solid"></line><line x1="484" y1="24" x2="484" y2="88" class="solid"></line><line x1="500" y1="24" x2="500" y2="88" class="solid"></line><line x1="516" y1="24" x2="516" y2="88" class="solid"></line><line x1="532" y1="24" x2="532" y2="88" class="solid"></line><line x1="548" y1="24" x2="548" y2="88" class="solid"></line><line x1="564" y1="24" x2="564" y2="88" class="solid"></line><line x1="580" y1="24" x2="580" y2="88" class="solid"></line><line x1="596" y1="24" x2="596" y2="88" class="solid"></line><line x1="612" y1="24" x2="612" y2="88" class="solid"></line><line x1="628" y1="24" x2="628" y2="88" class="solid"></line><line x1="644" y1="24" x2="644" y2="88" class="solid"></line><line x1="660" y1="24" x2="660" y2="88" class="solid"></line><line x1="676" y1="24" x2="676" y2="88" class="solid"></line><line x1="692" y1="24" x2="692" y2="88" class="solid"></line><line x1="708" y1="24" x2="708" y2="88" class="solid"></line><line x1="724" y1="24" x2="724" y2="88" class="solid"></line><line x1="740" y1="24" x2="740" y2="88" class="solid"></line><line x1="756" y1="24" x2="756" y2="88" class="solid"></line><line x1="772" y1="24" x2="772" y2="88" class="solid"></line><line x1="788" y1="24" x2="788" y2="88" class="solid"></line><line x1="804" y1="24" x2="804" y2="88" class="solid"></line><line x1="820" y1="24" x2="820" y2="88" class="solid"></line><line x1="836" y1="24" x2="836" y2="88" class="solid"></line><line x1="852" y1="24" x2="852" y2="88" class="solid"></line><path d="M 864,24 A 4,4 0,0,1 868,28" class="nofill"></path><line x1="868" y1="28" x2="868" y2="84" class="solid"></line><line x1="4" y1="56" x2="868" y2="56" class="solid"></line><path d="M 4,84 A 4,4 0,0,0 8,88" class="nofill"></path><line x1="52" y1="16" x2="52" y2="88" class="solid"></line><line x1="8" y1="88" x2="864" y2="88" class="solid"></line><path d="M 868,84 A 4,4 0,0,1 864,88" class="nofill"></path></g><g><text x="26" y="76">”</text><text x="42" y="76">a</text></g><g><text x="58" y="76">”</text><text x="74" y="76">:</text></g><g><text x="106" y="76">”</text><text x="122" y="76">c</text></g><g><text x="138" y="76">”</text><text x="154" y="76">:</text></g><g><text x="170" y="76">”</text><text x="186" y="76">f</text></g><g><text x="282" y="76">”</text><text x="298" y="76">,</text></g><g><text x="314" y="76">”</text><text x="330" y="76">d</text></g><g><text x="346" y="76">”</text><text x="362" y="76">:</text></g><g><text x="506" y="76">”</text><text x="522" y="76">b</text></g><g><text x="538" y="76">”</text><text x="554" y="76">:</text></g><g><text x="586" y="76">”</text><text x="602" y="76">a</text></g><g><text x="698" y="76">”</text><text x="714" y="76">,</text></g><g><text x="730" y="76">”</text><text x="746" y="76">z</text></g><g><text x="826" y="76">”</text><text x="842" y="76">]</text></g><g><line x1="36" y1="108" x2="36" y2="280" class="solid"></line><line x1="36" y1="280" x2="136" y2="280" class="solid"></line></g><g><line x1="52" y1="108" x2="52" y2="264" class="solid"></line><line x1="52" y1="264" x2="136" y2="264" class="solid"></line></g><g><line x1="116" y1="108" x2="116" y2="248" class="solid"></line><line x1="116" y1="248" x2="240" y2="248" class="solid"></line></g><g><line x1="132" y1="108" x2="132" y2="232" class="solid"></line><line x1="132" y1="232" x2="240" y2="232" class="solid"></line></g><g><line x1="180" y1="108" x2="180" y2="216" class="solid"></line><line x1="180" y1="216" x2="344" y2="216" class="solid"></line></g><g><line x1="276" y1="108" x2="276" y2="200" class="solid"></line><line x1="276" y1="200" x2="344" y2="200" class="solid"></line></g><g><line x1="324" y1="108" x2="324" y2="184" class="solid"></line><line x1="340" y1="108" x2="340" y2="168" class="solid"></line><line x1="340" y1="168" x2="556" y2="168" class="solid"></line><line x1="556" y1="168" x2="556" y2="360" class="solid"></line><line x1="324" y1="184" x2="556" y2="184" class="solid"></line><line x1="552" y1="344" x2="556" y2="344" class="solid"></line><line x1="536" y1="360" x2="556" y2="360" class="solid"></line></g><g><line x1="372" y1="108" x2="372" y2="152" class="solid"></line><line x1="372" y1="152" x2="504" y2="152" class="solid"></line></g><g><line x1="468" y1="108" x2="468" y2="136" class="solid"></line><line x1="468" y1="136" x2="504" y2="136" class="solid"></line></g><g><line x1="596" y1="108" x2="596" y2="280" class="solid"></line><line x1="596" y1="280" x2="768" y2="280" class="solid"></line></g><g><line x1="692" y1="108" x2="692" y2="264" class="solid"></line><line x1="692" y1="264" x2="768" y2="264" class="solid"></line></g><g><line x1="740" y1="108" x2="740" y2="248" class="solid"></line><line x1="740" y1="248" x2="904" y2="248" class="solid"></line></g><g><line x1="820" y1="108" x2="820" y2="232" class="solid"></line><line x1="820" y1="232" x2="904" y2="232" class="solid"></line></g><g><line x1="536" y1="136" x2="572" y2="136" class="solid"></line><line x1="572" y1="136" x2="572" y2="392" class="solid"></line><line x1="536" y1="152" x2="572" y2="152" class="solid"></line><line x1="568" y1="376" x2="572" y2="376" class="solid"></line><line x1="536" y1="392" x2="572" y2="392" class="solid"></line></g><g><line x1="376" y1="200" x2="428" y2="200" class="solid"></line><line x1="428" y1="200" x2="428" y2="392" class="solid"></line><line x1="376" y1="216" x2="428" y2="216" class="solid"></line><line x1="424" y1="376" x2="428" y2="376" class="solid"></line><line x1="392" y1="392" x2="428" y2="392" class="solid"></line></g><g><line x1="272" y1="232" x2="404" y2="232" class="solid"></line><line x1="404" y1="232" x2="404" y2="360" class="solid"></line><line x1="272" y1="248" x2="404" y2="248" class="solid"></line><line x1="400" y1="344" x2="404" y2="344" class="solid"></line><line x1="384" y1="360" x2="404" y2="360" class="solid"></line></g><g><line x1="936" y1="232" x2="1004" y2="232" class="solid"></line><line x1="1004" y1="232" x2="1004" y2="392" class="solid"></line><line x1="936" y1="248" x2="1004" y2="248" class="solid"></line><line x1="1000" y1="376" x2="1004" y2="376" class="solid"></line><line x1="968" y1="392" x2="1004" y2="392" class="solid"></line></g><g><line x1="168" y1="264" x2="268" y2="264" class="solid"></line><line x1="268" y1="264" x2="268" y2="360" class="solid"></line><line x1="168" y1="280" x2="268" y2="280" class="solid"></line><line x1="256" y1="344" x2="268" y2="344" class="solid"></line><line x1="240" y1="360" x2="268" y2="360" class="solid"></line></g><g><line x1="800" y1="264" x2="860" y2="264" class="solid"></line><line x1="860" y1="264" x2="860" y2="392" class="solid"></line><line x1="800" y1="280" x2="860" y2="280" class="solid"></line><line x1="856" y1="376" x2="860" y2="376" class="solid"></line><line x1="824" y1="392" x2="860" y2="392" class="solid"></line></g><g><path d="M 8,312 A 4,4 0,0,0 4,316" class="nofill"></path><line x1="4" y1="316" x2="4" y2="468" class="solid"></line><line x1="8" y1="312" x2="1008" y2="312" class="solid"></line><line x1="148" y1="312" x2="148" y2="472" class="solid"></line><line x1="292" y1="312" x2="292" y2="472" class="solid"></line><line x1="436" y1="312" x2="436" y2="472" class="solid"></line><line x1="580" y1="312" x2="580" y2="472" class="solid"></line><line x1="724" y1="312" x2="724" y2="472" class="solid"></line><line x1="868" y1="312" x2="868" y2="472" class="solid"></line><path d="M 1008,312 A 4,4 0,0,1 1012,316" class="nofill"></path><line x1="1012" y1="316" x2="1012" y2="468" class="solid"></line><path d="M 4,468 A 4,4 0,0,0 8,472" class="nofill"></path><line x1="8" y1="472" x2="1008" y2="472" class="solid"></line><path d="M 1012,468 A 4,4 0,0,1 1008,472" class="nofill"></path></g><g><line x1="88" y1="424" x2="132" y2="424" class="solid"></line><line x1="132" y1="424" x2="132" y2="560" class="solid"></line></g><g><line x1="232" y1="424" x2="276" y2="424" class="solid"></line><line x1="276" y1="424" x2="276" y2="504" class="solid"></line><line x1="276" y1="504" x2="396" y2="504" class="solid"></line><line x1="396" y1="504" x2="396" y2="624" class="solid"></line></g><g><line x1="664" y1="424" x2="708" y2="424" class="solid"></line><line x1="708" y1="424" x2="708" y2="624" class="solid"></line></g><g><line x1="96" y1="440" x2="116" y2="440" class="solid"></line><line x1="116" y1="440" x2="116" y2="632" class="solid"></line><line x1="116" y1="632" x2="220" y2="632" class="solid"></line><line x1="220" y1="632" x2="220" y2="676" class="solid"></line></g><g><line x1="240" y1="440" x2="260" y2="440" class="solid"></line><line x1="260" y1="440" x2="260" y2="520" class="solid"></line><line x1="260" y1="520" x2="380" y2="520" class="solid"></line><line x1="380" y1="520" x2="380" y2="744" class="solid"></line><line x1="252" y1="744" x2="380" y2="744" class="solid"></line><line x1="252" y1="744" x2="252" y2="804" class="solid"></line></g><g><line x1="672" y1="440" x2="692" y2="440" class="solid"></line><line x1="692" y1="440" x2="692" y2="760" class="solid"></line><line x1="284" y1="760" x2="692" y2="760" class="solid"></line><line x1="284" y1="760" x2="284" y2="804" class="solid"></line></g><g><line x1="88" y1="456" x2="100" y2="456" class="solid"></line><line x1="100" y1="456" x2="100" y2="648" class="solid"></line><line x1="100" y1="648" x2="252" y2="648" class="solid"></line><line x1="252" y1="648" x2="252" y2="676" class="solid"></line></g><g><line x1="232" y1="456" x2="244" y2="456" class="solid"></line><line x1="244" y1="456" x2="244" y2="536" class="solid"></line><line x1="244" y1="536" x2="364" y2="536" class="solid"></line><line x1="364" y1="536" x2="364" y2="728" class="solid"></line><line x1="220" y1="728" x2="364" y2="728" class="solid"></line><line x1="220" y1="728" x2="220" y2="804" class="solid"></line></g><g><line x1="664" y1="456" x2="676" y2="456" class="solid"></line><line x1="676" y1="456" x2="676" y2="776" class="solid"></line><line x1="316" y1="776" x2="676" y2="776" class="solid"></line><line x1="316" y1="776" x2="316" y2="804" class="solid"></line></g><g><line x1="132" y1="576" x2="132" y2="616" class="solid"></line><line x1="132" y1="616" x2="184" y2="616" class="solid"></line></g><g><path d="M 208,584 A 4,4 0,0,0 204,588" class="nofill"></path><line x1="204" y1="588" x2="204" y2="836" class="solid"></line><line x1="208" y1="584" x2="328" y2="584" class="solid"></line><line x1="236" y1="584" x2="236" y2="840" class="solid"></line><line x1="268" y1="584" x2="268" y2="840" class="solid"></line><line x1="300" y1="584" x2="300" y2="840" class="solid"></line><path d="M 328,584 A 4,4 0,0,1 332,588" class="nofill"></path><line x1="332" y1="588" x2="332" y2="836" class="solid"></line><line x1="204" y1="616" x2="332" y2="616" class="solid"></line><line x1="204" y1="712" x2="332" y2="712" class="solid"></line><path d="M 204,836 A 4,4 0,0,0 208,840" class="nofill"></path><line x1="208" y1="840" x2="328" y2="840" class="solid"></line><path d="M 332,836 A 4,4 0,0,1 328,840" class="nofill"></path></g><g><line x1="396" y1="640" x2="396" y2="712" class="solid"></line><line x1="352" y1="712" x2="396" y2="712" class="solid"></line></g><g><line x1="708" y1="640" x2="708" y2="712" class="solid"></line><line x1="408" y1="712" x2="708" y2="712" class="solid"></line></g></svg>
