<svg xmlns="http://www.w3.org/2000/svg" width="1128" height="592" class="svgbob">
	<style>
		.svgbob line,
		.svgbob path,
		.svgbob circle,
		.svgbob rect,
		.svgbob polygon {
		stroke: black;
		stroke-width: 2;
		stroke-opacity: 1;
		fill-opacity: 1;
		stroke-linecap: round;
		stroke-linejoin: miter;
		}

		.svgbob text {
		white-space: pre;
		fill: black;
		font-family: Iosevka Fixed, monospace;
		font-size: 14px;
		}

		.svgbob rect.backdrop {
		stroke: none;
		fill: white;
		}

		.svgbob .broken {
		stroke-dasharray: 8;
		}

		.svgbob .filled {
		fill: black;
		}

		.svgbob .bg_filled {
		fill: white;
		stroke-width: 1;
		}

		.svgbob .nofill {
		fill: white;
		}

		.svgbob .end_marked_arrow {
		marker-end: url(#arrow);
		}

		.svgbob .start_marked_arrow {
		marker-start: url(#arrow);
		}

		.svgbob .end_marked_diamond {
		marker-end: url(#diamond);
		}

		.svgbob .start_marked_diamond {
		marker-start: url(#diamond);
		}

		.svgbob .end_marked_circle {
		marker-end: url(#circle);
		}

		.svgbob .start_marked_circle {
		marker-start: url(#circle);
		}

		.svgbob .end_marked_open_circle {
		marker-end: url(#open_circle);
		}

		.svgbob .start_marked_open_circle {
		marker-start: url(#open_circle);
		}

		.svgbob .end_marked_big_open_circle {
		marker-end: url(#big_open_circle);
		}

		.svgbob .start_marked_big_open_circle {
		marker-start: url(#big_open_circle);
		}

		<!--separator-->
	</style>
	<defs>
		<marker id="arrow" viewBox="-2 -2 8 8" refX="4" refY="2" markerWidth="7" markerHeight="7" orient="auto-start-reverse">
			<polygon points="0,0 0,4 4,2 0,0"></polygon>
		</marker>
		<marker id="diamond" viewBox="-2 -2 8 8" refX="4" refY="2" markerWidth="7" markerHeight="7" orient="auto-start-reverse">
			<polygon points="0,2 2,0 4,2 2,4 0,2"></polygon>
		</marker>
		<marker id="circle" viewBox="0 0 8 8" refX="4" refY="4" markerWidth="7" markerHeight="7" orient="auto-start-reverse">
			<circle cx="4" cy="4" r="2" class="filled"></circle>
		</marker>
		<marker id="open_circle" viewBox="0 0 8 8" refX="4" refY="4" markerWidth="7" markerHeight="7" orient="auto-start-reverse">
			<circle cx="4" cy="4" r="2" class="bg_filled"></circle>
		</marker>
		<marker id="big_open_circle" viewBox="0 0 8 8" refX="4" refY="4" markerWidth="7" markerHeight="7" orient="auto-start-reverse">
			<circle cx="4" cy="4" r="3" class="bg_filled"></circle>
		</marker>
	</defs>
	<rect class="backdrop" x="0" y="0" width="1128" height="592"></rect>
	<text x="2" y="12">source:</text>
	<text x="10" y="44">0</text>
	<text x="26" y="44">1</text>
	<text x="42" y="44">2</text>
	<text x="58" y="44">3</text>
	<text x="74" y="44">4</text>
	<text x="90" y="44">5</text>
	<text x="106" y="44">6</text>
	<text x="122" y="44">7</text>
	<text x="138" y="44">8</text>
	<text x="154" y="44">9</text>
	<text x="170" y="44">.</text>
	<text x="186" y="44">.</text>
	<text x="202" y="44">.</text>
	<text x="218" y="44">.</text>
	<text x="234" y="44">.</text>
	<text x="250" y="44">.</text>
	<text x="266" y="44">.</text>
	<text x="282" y="44">.</text>
	<text x="298" y="44">.</text>
	<text x="314" y="44">.</text>
	<text x="330" y="44">.</text>
	<text x="346" y="44">.</text>
	<text x="362" y="44">.</text>
	<text x="378" y="44">.</text>
	<text x="394" y="44">.</text>
	<text x="410" y="44">.</text>
	<text x="426" y="44">.</text>
	<text x="442" y="44">.</text>
	<text x="458" y="44">.</text>
	<text x="474" y="44">.</text>
	<text x="490" y="44">.</text>
	<text x="506" y="44">.</text>
	<text x="522" y="44">.</text>
	<text x="538" y="44">.</text>
	<text x="554" y="44">.</text>
	<text x="570" y="44">.</text>
	<text x="586" y="44">.</text>
	<text x="602" y="44">.</text>
	<text x="618" y="44">.</text>
	<text x="634" y="44">.</text>
	<text x="10" y="76">{</text>
	<text x="26" y="76" style="fill:#801515">a</text>
	<text x="42" y="76">:</text>
	<text x="58" y="76">{</text>
	<text x="74" y="76" style="fill:blue">c</text>
	<text x="90" y="76">:</text>
	<text x="106" y="76" style="fill:green">f</text>
	<text x="122" y="76" style="fill:green">o</text>
	<text x="138" y="76" style="fill:green">o</text>
	<text x="154" y="76" style="fill:green">b</text>
	<text x="170" y="76" style="fill:green">a</text>
	<text x="186" y="76" style="fill:green">r</text>
	<text x="202" y="76">,</text>
	<text x="218" y="76" style="fill:#6B4E90">d</text>
	<text x="234" y="76">:</text>
	<text x="250" y="76" style="fill:#BF9F00">3</text>
	<text x="266" y="76" style="fill:#BF9F00">.</text>
	<text x="282" y="76" style="fill:#BF9F00">1</text>
	<text x="298" y="76" style="fill:#BF9F00">4</text>
	<text x="314" y="76" style="fill:#BF9F00">1</text>
	<text x="330" y="76" style="fill:#BF9F00">5</text>
	<text x="346" y="76">}</text>
	<text x="362" y="76">,</text>
	<text x="378" y="76" style="fill:#009800">b</text>
	<text x="394" y="76">:</text>
	<text x="410" y="76">[</text>
	<text x="426" y="76" style="fill:#958787">a</text>
	<text x="442" y="76" style="fill:#958787">s</text>
	<text x="458" y="76" style="fill:#958787">d</text>
	<text x="474" y="76" style="fill:#958787">f</text>
	<text x="490" y="76" style="fill:#958787">g</text>
	<text x="506" y="76" style="fill:#958787">h</text>
	<text x="522" y="76">,</text>
	<text x="538" y="76" style="fill:#007272">z</text>
	<text x="554" y="76" style="fill:#007272">x</text>
	<text x="570" y="76" style="fill:#007272">c</text>
	<text x="586" y="76" style="fill:#007272">v</text>
	<text x="602" y="76" style="fill:#007272">b</text>
	<text x="618" y="76" style="fill:#007272">]</text>
	<text x="634" y="76">}</text>
	<polygon points="16,108 20,96 24,108" class="filled"></polygon>
	<polygon points="32,108 36,96 40,108" class="filled"></polygon>
	<text x="2" y="220">vector:</text>
	<text x="18" y="252">type:</text>
	<text x="66" y="252">object</text>
	<text x="162" y="252">type:</text>
	<text x="210" y="252">object</text>
	<text x="314" y="252">type:</text>
	<text x="362" y="252">string</text>
	<text x="474" y="252">type:</text>
	<text x="522" y="252">number</text>
	<text x="642" y="252">type:</text>
	<text x="690" y="252">array</text>
	<text x="794" y="252">type:</text>
	<text x="842" y="252">string</text>
	<text x="962" y="252">type:</text>
	<text x="1010" y="252">string</text>
	<text x="18" y="268">key:</text>
	<text x="58" y="268">0</text>
	<text x="162" y="268">key:</text>
	<text x="314" y="268">key:</text>
	<text x="474" y="268">key:</text>
	<text x="642" y="268">key:</text>
	<text x="794" y="268">key:</text>
	<text x="834" y="268">0</text>
	<text x="962" y="268">key:</text>
	<text x="1002" y="268">0</text>
	<text x="18" y="284">value:</text>
	<text x="162" y="284">value:</text>
	<text x="314" y="284">value:</text>
	<text x="474" y="284">value:</text>
	<text x="642" y="284">value:</text>
	<text x="794" y="284">value:</text>
	<text x="962" y="284">value:</text>
	<text x="18" y="300">idx:</text>
	<text x="58" y="300">0</text>
	<text x="162" y="300">idx:</text>
	<text x="202" y="300">1</text>
	<text x="314" y="300">idx:</text>
	<text x="354" y="300">2</text>
	<text x="474" y="300">idx:</text>
	<text x="514" y="300">3</text>
	<text x="642" y="300">idx:</text>
	<text x="682" y="300">4</text>
	<text x="794" y="300">idx:</text>
	<text x="834" y="300">5</text>
	<text x="962" y="300">idx:</text>
	<text x="1002" y="300">6</text>
	<text x="18" y="316">depth:</text>
	<text x="74" y="316">0</text>
	<text x="162" y="316">depth:</text>
	<text x="218" y="316">1</text>
	<text x="314" y="316">depth:</text>
	<text x="370" y="316">2</text>
	<text x="474" y="316">depth:</text>
	<text x="530" y="316">2</text>
	<text x="642" y="316">depth:</text>
	<text x="698" y="316">1</text>
	<text x="794" y="316">depth:</text>
	<text x="850" y="316">2</text>
	<text x="962" y="316">depth:</text>
	<text x="1018" y="316">2</text>
	<text x="18" y="332">offset:</text>
	<text x="82" y="332" style="fill:green">0</text>
	<text x="162" y="332">offset:</text>
	<text x="226" y="332" style="fill:#AE0818">0</text>
	<text x="314" y="332">offset:</text>
	<text x="378" y="332">0</text>
	<text x="474" y="332">offset:</text>
	<text x="538" y="332">0</text>
	<text x="642" y="332">offset:</text>
	<text x="706" y="332" style="fill:#BF8800">2</text>
	<text x="794" y="332">offset:</text>
	<text x="858" y="332">0</text>
	<text x="962" y="332">offset:</text>
	<text x="1026" y="332">0</text>
	<text x="18" y="348">limit:</text>
	<text x="74" y="348" style="fill:green">2</text>
	<text x="162" y="348">limit:</text>
	<text x="218" y="348" style="fill:#AE0818">2</text>
	<text x="314" y="348">limit:0</text>
	<text x="474" y="348">limit:0</text>
	<text x="642" y="348">limit:</text>
	<text x="698" y="348" style="fill:#BF8800">4</text>
	<text x="794" y="348">limit:</text>
	<text x="850" y="348">0</text>
	<text x="962" y="348">limit:</text>
	<text x="1018" y="348">0</text>
	<text x="122" y="396">+1</text>
	<text x="218" y="428">0</text>
	<polygon points="184,436 192,440 184,444" class="filled"></polygon>
	<polygon points="208,500 216,500 212,512" class="filled"></polygon>
	<polygon points="264,500 272,500 268,512" class="filled"></polygon>
	<text x="218" y="524" style="fill:green">1</text>
	<text x="258" y="524" style="fill:green">4</text>
	<text x="218" y="556" style="fill:#AE0818">2</text>
	<text x="258" y="556" style="fill:#AE0818">3</text>
	<text x="298" y="556" style="fill:#BF8800">5</text>
	<text x="338" y="556" style="fill:#BF8800">6</text>
	<text x="74" y="284">0</text>
	<text x="218" y="284">0</text>
	<text x="698" y="284">0</text>
	<text x="2" y="396">index:</text>
	<text x="74" y="188">lo</text>
	<text x="154" y="188">lo, hi = key&gt;&gt;32, uint32(key)</text>
	<text x="202" y="268" style="fill:#801515">1&lt;&lt;32|2</text>
	<text x="354" y="268" style="fill:blue">4&lt;&lt;32|5</text>
	<text x="514" y="268" style="fill:#6B4E90">13&lt;&lt;32|14</text>
	<text x="682" y="268" style="fill:#009800">22&lt;&lt;32|23</text>
	<text x="370" y="284" style="fill:green">6&lt;&lt;32|11</text>
	<text x="530" y="284" style="fill:#BF9F00">15&lt;&lt;32|20</text>
	<text x="850" y="284" style="fill:#958787">26&lt;&lt;32|31</text>
	<text x="1018" y="284" style="fill:#007272">33&lt;&lt;32|37</text>
	<g>
		<path d="M 8,24 A 4,4 0,0,0 4,28" class="nofill"></path>
		<line x1="4" y1="28" x2="4" y2="84" class="solid"></line>
		<line x1="8" y1="24" x2="640" y2="24" class="solid"></line>
		<line x1="20" y1="24" x2="20" y2="88" class="solid"></line>
		<line x1="36" y1="24" x2="36" y2="88" class="solid"></line>
		<line x1="68" y1="24" x2="68" y2="88" class="solid"></line>
		<line x1="84" y1="24" x2="84" y2="88" class="solid"></line>
		<line x1="100" y1="24" x2="100" y2="88" class="solid"></line>
		<line x1="116" y1="24" x2="116" y2="88" class="solid"></line>
		<line x1="132" y1="24" x2="132" y2="88" class="solid"></line>
		<line x1="148" y1="24" x2="148" y2="88" class="solid"></line>
		<line x1="164" y1="24" x2="164" y2="88" class="solid"></line>
		<line x1="180" y1="24" x2="180" y2="88" class="solid"></line>
		<line x1="196" y1="24" x2="196" y2="88" class="solid"></line>
		<line x1="212" y1="24" x2="212" y2="88" class="solid"></line>
		<line x1="228" y1="24" x2="228" y2="88" class="solid"></line>
		<line x1="244" y1="24" x2="244" y2="88" class="solid"></line>
		<line x1="260" y1="24" x2="260" y2="88" class="solid"></line>
		<line x1="276" y1="24" x2="276" y2="88" class="solid"></line>
		<line x1="292" y1="24" x2="292" y2="88" class="solid"></line>
		<line x1="308" y1="24" x2="308" y2="88" class="solid"></line>
		<line x1="324" y1="24" x2="324" y2="88" class="solid"></line>
		<line x1="340" y1="24" x2="340" y2="88" class="solid"></line>
		<line x1="356" y1="24" x2="356" y2="88" class="solid"></line>
		<line x1="372" y1="24" x2="372" y2="88" class="solid"></line>
		<line x1="388" y1="24" x2="388" y2="88" class="solid"></line>
		<line x1="404" y1="24" x2="404" y2="88" class="solid"></line>
		<line x1="420" y1="24" x2="420" y2="88" class="solid"></line>
		<line x1="436" y1="24" x2="436" y2="88" class="solid"></line>
		<line x1="452" y1="24" x2="452" y2="88" class="solid"></line>
		<line x1="468" y1="24" x2="468" y2="88" class="solid"></line>
		<line x1="484" y1="24" x2="484" y2="88" class="solid"></line>
		<line x1="500" y1="24" x2="500" y2="88" class="solid"></line>
		<line x1="516" y1="24" x2="516" y2="88" class="solid"></line>
		<line x1="532" y1="24" x2="532" y2="88" class="solid"></line>
		<line x1="548" y1="24" x2="548" y2="88" class="solid"></line>
		<line x1="564" y1="24" x2="564" y2="88" class="solid"></line>
		<line x1="580" y1="24" x2="580" y2="88" class="solid"></line>
		<line x1="596" y1="24" x2="596" y2="88" class="solid"></line>
		<line x1="612" y1="24" x2="612" y2="88" class="solid"></line>
		<line x1="628" y1="24" x2="628" y2="88" class="solid"></line>
		<path d="M 640,24 A 4,4 0,0,1 644,28" class="nofill"></path>
		<line x1="644" y1="28" x2="644" y2="84" class="solid"></line>
		<line x1="4" y1="56" x2="644" y2="56" class="solid"></line>
		<path d="M 4,84 A 4,4 0,0,0 8,88" class="nofill"></path>
		<line x1="52" y1="16" x2="52" y2="88" class="solid"></line>
		<line x1="8" y1="88" x2="640" y2="88" class="solid"></line>
		<path d="M 644,84 A 4,4 0,0,1 640,88" class="nofill"></path>
	</g>
	<g>
		<line x1="20" y1="108" x2="20" y2="180" class="solid"></line>
		<path d="M 20,180 A 4,4 0,0,0 24,184" class="nofill"></path>
		<line x1="24" y1="184" x2="72" y2="184" class="solid"></line>
	</g>
	<g>
		<line x1="36" y1="108" x2="36" y2="132" class="solid"></line>
		<path d="M 36,132 A 4,4 0,0,0 40,136" class="nofill"></path>
		<line x1="40" y1="136" x2="208" y2="136" class="solid"></line>
		<path d="M 208,136 A 4,4 0,0,1 212,140" class="nofill"></path>
		<line x1="212" y1="140" x2="212" y2="168" class="solid"></line>
		<path d="M 144,168 A 4,4 0,0,0 140,172" class="nofill"></path>
		<line x1="140" y1="172" x2="140" y2="196" class="solid"></line>
		<line x1="144" y1="168" x2="408" y2="168" class="solid"></line>
		<path d="M 408,168 A 4,4 0,0,1 412,172" class="nofill"></path>
		<line x1="412" y1="172" x2="412" y2="196" class="solid"></line>
		<line x1="104" y1="184" x2="140" y2="184" class="solid"></line>
		<path d="M 140,196 A 4,4 0,0,0 144,200" class="nofill"></path>
		<line x1="144" y1="200" x2="408" y2="200" class="solid"></line>
		<line x1="284" y1="200" x2="284" y2="260" class="solid"></line>
		<path d="M 412,196 A 4,4 0,0,1 408,200" class="nofill"></path>
		<line x1="272" y1="264" x2="280" y2="264" class="solid"></line>
		<path d="M 284,260 A 4,4 0,0,1 280,264" class="nofill"></path>
	</g>
	<g>
		<path d="M 8,232 A 4,4 0,0,0 4,236" class="nofill"></path>
		<line x1="4" y1="236" x2="4" y2="356" class="solid"></line>
		<line x1="8" y1="232" x2="1112" y2="232" class="solid"></line>
		<line x1="148" y1="232" x2="148" y2="360" class="solid"></line>
		<line x1="300" y1="232" x2="300" y2="360" class="solid"></line>
		<line x1="460" y1="232" x2="460" y2="360" class="solid"></line>
		<line x1="628" y1="232" x2="628" y2="360" class="solid"></line>
		<line x1="780" y1="232" x2="780" y2="360" class="solid"></line>
		<line x1="948" y1="232" x2="948" y2="360" class="solid"></line>
		<path d="M 1112,232 A 4,4 0,0,1 1116,236" class="nofill"></path>
		<line x1="1116" y1="236" x2="1116" y2="356" class="solid"></line>
		<path d="M 4,356 A 4,4 0,0,0 8,360" class="nofill"></path>
		<line x1="8" y1="360" x2="1112" y2="360" class="solid"></line>
		<path d="M 1116,356 A 4,4 0,0,1 1112,360" class="nofill"></path>
	</g>
	<g>
		<line x1="88" y1="312" x2="128" y2="312" class="solid"></line>
		<path d="M 128,312 A 4,4 0,0,1 132,316" class="nofill"></path>
		<line x1="132" y1="316" x2="132" y2="384" class="solid"></line>
	</g>
	<g>
		<line x1="96" y1="328" x2="112" y2="328" class="solid"></line>
		<path d="M 112,328 A 4,4 0,0,1 116,332" class="nofill"></path>
		<line x1="116" y1="332" x2="116" y2="452" class="solid"></line>
		<path d="M 116,452 A 4,4 0,0,0 120,456" class="nofill"></path>
		<line x1="120" y1="456" x2="208" y2="456" class="solid"></line>
		<path d="M 208,456 A 4,4 0,0,1 212,460" class="nofill"></path>
		<line x1="212" y1="460" x2="212" y2="500" class="solid"></line>
	</g>
	<g>
		<line x1="88" y1="344" x2="96" y2="344" class="solid"></line>
		<path d="M 96,344 A 4,4 0,0,1 100,348" class="nofill"></path>
		<line x1="100" y1="348" x2="100" y2="468" class="solid"></line>
		<path d="M 100,468 A 4,4 0,0,0 104,472" class="nofill"></path>
		<line x1="104" y1="472" x2="264" y2="472" class="solid"></line>
		<path d="M 264,472 A 4,4 0,0,1 268,476" class="nofill"></path>
		<line x1="268" y1="476" x2="268" y2="500" class="solid"></line>
	</g>
	<g>
		<line x1="132" y1="400" x2="132" y2="436" class="solid"></line>
		<path d="M 132,436 A 4,4 0,0,0 136,440" class="nofill"></path>
		<line x1="136" y1="440" x2="184" y2="440" class="solid"></line>
	</g>
	<g>
		<path d="M 208,408 A 4,4 0,0,0 204,412" class="nofill"></path>
		<line x1="204" y1="412" x2="204" y2="564" class="solid"></line>
		<line x1="208" y1="408" x2="360" y2="408" class="solid"></line>
		<line x1="244" y1="408" x2="244" y2="568" class="solid"></line>
		<line x1="284" y1="408" x2="284" y2="568" class="solid"></line>
		<line x1="324" y1="408" x2="324" y2="568" class="solid"></line>
		<path d="M 360,408 A 4,4 0,0,1 364,412" class="nofill"></path>
		<line x1="364" y1="412" x2="364" y2="564" class="solid"></line>
		<line x1="204" y1="440" x2="364" y2="440" class="solid"></line>
		<line x1="204" y1="536" x2="364" y2="536" class="solid"></line>
		<path d="M 204,564 A 4,4 0,0,0 208,568" class="nofill"></path>
		<line x1="208" y1="568" x2="360" y2="568" class="solid"></line>
		<path d="M 364,564 A 4,4 0,0,1 360,568" class="nofill"></path>
	</g>
</svg>
